<svg id="visual" viewBox="0 0 960 640" width="960" height="640" xmlns="http://www.w3.org/2000/svg" xmlns:xlink="http://www.w3.org/1999/xlink" version="1.1"><rect x="0" y="0" width="960" height="640" fill="#0f0f0f"></rect><defs><linearGradient id="grad1_0" x1="33.3%" y1="100%" x2="100%" y2="0%"><stop offset="20%" stop-color="#79b8eb" stop-opacity="1"></stop><stop offset="80%" stop-color="#79b8eb" stop-opacity="1"></stop></linearGradient></defs><defs><linearGradient id="grad1_1" x1="33.3%" y1="100%" x2="100%" y2="0%"><stop offset="20%" stop-color="#79b8eb" stop-opacity="1"></stop><stop offset="80%" stop-color="#0f0f0f" stop-opacity="1"></stop></linearGradient></defs><defs><linearGradient id="grad2_0" x1="0%" y1="100%" x2="66.7%" y2="0%"><stop offset="20%" stop-color="#79b8eb" stop-opacity="1"></stop><stop offset="80%" stop-color="#79b8eb" stop-opacity="1"></stop></linearGradient></defs><defs><linearGradient id="grad2_1" x1="0%" y1="100%" x2="66.7%" y2="0%"><stop offset="20%" stop-color="#0f0f0f" stop-opacity="1"></stop><stop offset="80%" stop-color="#79b8eb" stop-opacity="1"></stop></linearGradient></defs><g transform="translate(960, 640)"><path d="M-259.6 0C-253.2 -46.1 -246.9 -92.3 -224.8 -129.8C-202.8 -167.3 -165.1 -196.3 -125 -216.5C-84.9 -236.7 -42.5 -248.2 0 -259.6L0 0Z" fill="#435d74"></path><path d="M-129.8 0C-126.6 -23.1 -123.4 -46.1 -112.4 -64.9C-101.4 -83.7 -82.5 -98.2 -62.5 -108.3C-42.5 -118.4 -21.2 -124.1 0 -129.8L0 0Z" fill="#79b8eb"></path></g><g transform="translate(0, 0)"><path d="M259.6 0C247.7 42.2 235.8 84.4 215.6 124.5C195.5 164.6 167.1 202.6 129.8 224.8C92.5 247 46.2 253.3 0 259.6L0 0Z" fill="#435d74"></path><path d="M129.8 0C123.8 21.1 117.9 42.2 107.8 62.2C97.7 82.3 83.6 101.3 64.9 112.4C46.2 123.5 23.1 126.6 0 129.8L0 0Z" fill="#79b8eb"></path></g></svg>